<?xml version="1.0" encoding="UTF-8"?>
<svg xmlns="http://www.w3.org/2000/svg" viewBox="0 0 74 74" width="512" height="512"><g id="line_icons" data-name="line icons"><path d="M37,58.808A21.808,21.808,0,1,1,58.808,37,21.833,21.833,0,0,1,37,58.808Zm0-41.616A19.808,19.808,0,1,0,56.808,37,19.831,19.831,0,0,0,37,17.192Z"/><path d="M37,53.64A16.64,16.64,0,1,1,53.64,37,16.659,16.659,0,0,1,37,53.64Zm0-31.28A14.64,14.64,0,1,0,51.64,37,14.657,14.657,0,0,0,37,22.36Z"/><path d="M38.666,37.32H33.58a1,1,0,0,1-1-1V28.145a1,1,0,0,1,1-1h5.086a5.088,5.088,0,1,1,0,10.175Zm-4.086-2h4.086a3.088,3.088,0,1,0,0-6.175H34.58Z"/><path d="M39.965,45.5H33.58a1,1,0,0,1-1-1V36.32a1,1,0,0,1,1-1h6.385a5.088,5.088,0,0,1,0,10.176Zm-5.385-2h5.385a3.088,3.088,0,0,0,0-6.176H34.58Z"/><path d="M33.58,29.145H32.12a1,1,0,1,1,0-2h1.46a1,1,0,0,1,0,2Z"/><path d="M34.4,29.145a1,1,0,0,1-1-1v-1.84a1,1,0,0,1,2,0v1.84A1,1,0,0,1,34.4,29.145Z"/><path d="M37.585,29.145a1,1,0,0,1-1-1v-1.84a1,1,0,0,1,2,0v1.84A1,1,0,0,1,37.585,29.145Z"/><path d="M34.4,47.335a1,1,0,0,1-1-1V44.5a1,1,0,0,1,2,0v1.839A1,1,0,0,1,34.4,47.335Z"/><path d="M37.585,47.335a1,1,0,0,1-1-1V44.5a1,1,0,0,1,2,0v1.839A1,1,0,0,1,37.585,47.335Z"/><path d="M33.58,45.5H32.12a1,1,0,1,1,0-2h1.46a1,1,0,0,1,0,2Z"/><path d="M37,17.192a1,1,0,0,1-1-1V9.256a1,1,0,0,1,2,0v6.936A1,1,0,0,1,37,17.192Z"/><path d="M37,10.256a4.128,4.128,0,1,1,4.128-4.128A4.133,4.133,0,0,1,37,10.256ZM37,4a2.128,2.128,0,1,0,2.128,2.128A2.13,2.13,0,0,0,37,4Z"/><path d="M37,65.744a1,1,0,0,1-1-1V57.808a1,1,0,1,1,2,0v6.936A1,1,0,0,1,37,65.744Z"/><path d="M37,72a4.128,4.128,0,1,1,4.128-4.128A4.133,4.133,0,0,1,37,72Zm0-6.256a2.128,2.128,0,1,0,2.128,2.128A2.13,2.13,0,0,0,37,65.744Z"/><path d="M64.744,38H57.808a1,1,0,1,1,0-2h6.936a1,1,0,0,1,0,2Z"/><path d="M67.872,41.128A4.128,4.128,0,1,1,72,37,4.133,4.133,0,0,1,67.872,41.128Zm0-6.256A2.128,2.128,0,1,0,70,37,2.13,2.13,0,0,0,67.872,34.872Z"/><path d="M16.192,38H9.256a1,1,0,0,1,0-2h6.936a1,1,0,0,1,0,2Z"/><path d="M6.128,41.128A4.128,4.128,0,1,1,10.256,37,4.133,4.133,0,0,1,6.128,41.128Zm0-6.256A2.128,2.128,0,1,0,8.256,37,2.13,2.13,0,0,0,6.128,34.872Z"/><path d="M19.7,61.128H11.716a1,1,0,1,1,0-2h7.433l4-6.416a1,1,0,0,1,1.7,1.058l-4.292,6.887A1,1,0,0,1,19.7,61.128Z"/><path d="M8.59,64.256a4.128,4.128,0,1,1,4.129-4.128A4.132,4.132,0,0,1,8.59,64.256ZM8.59,58a2.128,2.128,0,1,0,2.129,2.128A2.13,2.13,0,0,0,8.59,58Z"/><path d="M24,21.759a1,1,0,0,1-.85-.471l-4-6.416H11.716a1,1,0,0,1,0-2H19.7a1,1,0,0,1,.849.471l4.292,6.887A1,1,0,0,1,24,21.759Z"/><path d="M8.59,18a4.128,4.128,0,1,1,4.129-4.128A4.132,4.132,0,0,1,8.59,18Zm0-6.256a2.128,2.128,0,1,0,2.129,2.128A2.13,2.13,0,0,0,8.59,11.744Z"/><path d="M62.284,61.128H54.3a1,1,0,0,1-.849-.471L49.155,53.77a1,1,0,0,1,1.7-1.058l4,6.416h7.433a1,1,0,1,1,0,2Z"/><path d="M65.41,64.256a4.128,4.128,0,1,1,4.128-4.128A4.133,4.133,0,0,1,65.41,64.256Zm0-6.256a2.128,2.128,0,1,0,2.128,2.128A2.131,2.131,0,0,0,65.41,58Z"/><path d="M50,21.759a1,1,0,0,1-.848-1.529l4.292-6.887a1,1,0,0,1,.849-.471h7.988a1,1,0,1,1,0,2H54.851l-4,6.416A1,1,0,0,1,50,21.759Z"/><path d="M65.41,18a4.128,4.128,0,1,1,4.128-4.128A4.134,4.134,0,0,1,65.41,18Zm0-6.256a2.128,2.128,0,1,0,2.128,2.128A2.13,2.13,0,0,0,65.41,11.744Z"/></g></svg>
