<svg id="Layer_1" data-name="Layer 1" xmlns="http://www.w3.org/2000/svg" viewBox="0 0 2000 2000"><defs><style>.cls-1{fill:#fefefe;}.cls-2{fill:#04fed3;}.cls-3{fill:#a9feef;}.cls-4{fill:#dcfef8;}.cls-5{fill:#5dfee2;}</style></defs><path class="cls-1" d="M0,0H2000V2000H0ZM1455.31,1017.83c-.1-.62-.2-1.23-.29-1.85.22-13.44-3-26.23-8.42-38.32-5.58-12.49-13.42-23.33-25.11-31.31-13.54-9.24-28.12-15-44.43-16.47l-2.09-.55c-6.64-.17-13.29-.49-19.94-.49q-352.95-.12-705.9-.17l-3.14-.56c-9.62-2.18-19.55-3.44-28.77-6.73-18-6.42-32.07-18.47-43-34C562,870.16,554,851.22,551.77,830.07l-.54-2.1c-.11-5.33-.31-10.65-.32-16q0-227.79,0-455.57a76,76,0,0,0-.9-8.33l-1.93-1.2c-4.87.72-4,4.52-4,7.69q0,231.72,0,463.44a91.56,91.56,0,0,0,.93,12.81c3.41,24.1,11.68,46.22,27.14,65.32,15.91,19.65,36.24,32.43,61.1,36.63,13.48,2.28,27.38,2.66,41.1,2.76,44.49.33,89,.13,133.48.12q279,0,557.92-.14a93.71,93.71,0,0,1,41.61,9.71c20.15,9.87,31.69,27,37.54,48.11,4.08,14.74,5.11,29.88,5.1,45.2q-.18,285.46-.08,570.93c0,1.67-.39,3.49.17,5s2.08,2.38,3.18,3.55c1.15-1.17,2.86-2.16,3.32-3.56.59-1.81.2-4,.21-6v-370q0-104.74-.1-209.48C1456.71,1025.3,1455.8,1021.56,1455.31,1017.83Z" transform="translate(0)"/><path class="cls-2" d="M551.77,830.07c2.25,21.15,10.27,40.09,22.42,57.31,11,15.53,25,27.58,43,34,9.22,3.29,19.15,4.55,28.77,6.73l3.14.56q352.95.08,705.9.17c6.65,0,13.3.32,19.94.49l2.09.55c16.31,1.45,30.89,7.23,44.43,16.47,11.69,8,19.53,18.82,25.11,31.31,5.41,12.09,8.64,24.88,8.42,38.32.09.62.19,1.23.29,1.85.49,3.73,1.4,7.47,1.4,11.2q.15,104.74.1,209.48v370c0,2,.38,4.14-.21,6-.46,1.4-2.17,2.39-3.32,3.56-1.1-1.17-2.65-2.16-3.18-3.55s-.17-3.28-.17-5q0-285.46.08-570.93c0-15.32-1-30.46-5.1-45.2-5.85-21.12-17.39-38.24-37.54-48.11a93.71,93.71,0,0,0-41.61-9.71q-279,.12-557.92.14c-44.5,0-89,.21-133.48-.12-13.72-.1-27.62-.48-41.1-2.76-24.86-4.2-45.19-17-61.1-36.63-15.46-19.1-23.73-41.22-27.14-65.32a91.56,91.56,0,0,1-.93-12.81q-.08-231.72,0-463.44c0-3.17-.91-7,4-7.69l1.93,1.2a76,76,0,0,1,.9,8.33q.07,227.77,0,455.57c0,5.33.21,10.65.32,16Z" transform="translate(0)"/><path class="cls-3" d="M649.13,928.67l-3.14-.56Z" transform="translate(0)"/><path class="cls-4" d="M550,348.09l-1.93-1.2Z" transform="translate(0)"/><path class="cls-4" d="M551.77,830.07l-.54-2.1Z" transform="translate(0)"/><path class="cls-3" d="M1377.06,929.88l-2.09-.55Z" transform="translate(0)"/><path class="cls-5" d="M1455.31,1017.83c-.1-.62-.2-1.23-.29-1.85C1455.11,1016.6,1455.21,1017.21,1455.31,1017.83Z" transform="translate(0)"/></svg>