<?xml version="1.0"?>
<svg xmlns="http://www.w3.org/2000/svg" viewBox="0 0 64 64" width="512" height="512"><g id="Investment"><path d="M61.9,44.555l-3.975-8A1,1,0,0,0,57.028,36l-16.046.006a1,1,0,0,0-.85.544l-4.026,8a1,1,0,0,0,.042.974c.013.02,12.078,16.077,12.078,16.077a1,1,0,0,0,.8.4h0a1,1,0,0,0,.8-.4S61.838,45.545,61.85,45.527A1,1,0,0,0,61.9,44.555ZM49,56.877,46.28,46h5.44ZM51.387,44H46.639l2.373-4.75Zm5.633-4.764L59.387,44H54.639ZM53.012,42.75,50.639,38h4.748Zm-8,0L42.639,38h4.748Zm-4-3.5L43.387,44H38.623ZM44.22,46l2.6,10.4L39,46Zm6.941,10.477L53.78,46H59Z"/><path d="M53.94,26.65l-3-8A1.007,1.007,0,0,0,50,18H46.69l-2.75-7.35A1.007,1.007,0,0,0,43,10H39.69L36.94,2.65A1.007,1.007,0,0,0,36,2H28a1.007,1.007,0,0,0-.94.65L24.31,10H21a1.007,1.007,0,0,0-.94.65L17.31,18H14a1.007,1.007,0,0,0-.94.65l-3,8a1,1,0,0,0,.12.92A.983.983,0,0,0,11,28H53a1.005,1.005,0,0,0,.94-1.35ZM42.31,12l2.25,6H33.44l2.25-6ZM32,16.15,30.44,12h3.12ZM28.69,4h6.62l2.25,6H26.44Zm-7,8h6.62l2.25,6H19.44ZM12.44,26l2.25-6h6.62l2.25,6Zm11-6h3.12L25,24.15Zm3,6,2.25-6h6.62l2.25,6Zm11-6h3.12L39,24.15Zm3,6,2.25-6h6.62l2.25,6Z"/><path d="M42,57H30.414l1.293-1.293a1,1,0,0,0-1.414-1.414l-3,3a1,1,0,0,0,0,1.414l3,3a1,1,0,0,0,1.414-1.414L30.414,59H42a1,1,0,0,0,0-2Z"/><path d="M61.707,29.293a1,1,0,0,0-1.414,0L59,30.586V13a1,1,0,0,0-1-1H50a1,1,0,0,0,0,2h7V30.586l-1.293-1.293a1,1,0,0,0-1.414,1.414l3,3a1,1,0,0,0,1.416,0l3-3A1,1,0,0,0,61.707,29.293Z"/><path d="M13.707,12.293l-3-3a1,1,0,0,0-1.414,1.414L10.586,12H3a1,1,0,0,0-1,1V37a1,1,0,0,0,2,0V14h6.586L9.293,15.293a1,1,0,1,0,1.414,1.414l3-3A1,1,0,0,0,13.707,12.293Z"/><path d="M14,46h2a1,1,0,0,1,1,1,1,1,0,0,0,2,0,3,3,0,0,0-3-3V43a1,1,0,0,0-2,0v1a3,3,0,0,0,0,6h2a1,1,0,0,1,0,2H14a1,1,0,0,1-1-1,1,1,0,0,0-2,0,3,3,0,0,0,3,3v1a1,1,0,0,0,2,0V54a3,3,0,0,0,0-6H14a1,1,0,0,1,0-2Z"/><path d="M15,36A13,13,0,1,0,28,49,13.015,13.015,0,0,0,15,36Zm0,24A11,11,0,1,1,26,49,11.013,11.013,0,0,1,15,60Z"/><path d="M15,39A10,10,0,1,0,25,49,10.011,10.011,0,0,0,15,39Zm0,18a8,8,0,1,1,8-8A8.009,8.009,0,0,1,15,57Z"/></g></svg>
