<svg id="Layer_1" data-name="Layer 1" xmlns="http://www.w3.org/2000/svg" viewBox="0 0 1731.11 1639.48"><defs><style>.cls-1{fill:#172e3a;}</style></defs>



<path class="cls-1" d="M997.61,1820.52q-148.73,0-297.47-.14a25.36,25.36,0,0,1-11.59-3.25q-62-34.11-123.75-68.62-62.31-34.63-124.59-69.34a14.17,14.17,0,0,1-5.09-5.11q-55.32-97.11-110.45-194.33Q280,1401,235.43,1322.14q-39.62-69.87-79.33-139.71c-6.07-10.7-12.23-21.36-18-32.2a19.63,19.63,0,0,1-2.27-8.9q-.16-150.49,0-301a18.56,18.56,0,0,1,2.63-9.26c41.82-67.83,84.24-135.3,125.59-203.42,35.38-58.29,69.68-117.23,104.23-176,22.67-38.58,44.92-77.4,67.48-116a15,15,0,0,1,5.41-4.86q64.07-37.12,128.22-74.08,63.71-36.74,127.49-73.36a15.7,15.7,0,0,1,7.45-2.08q292-.13,584,0a15,15,0,0,1,7,1.84Q1387,234,1478.64,285.14c27.42,15.28,54.89,30.48,82.23,45.91a17.3,17.3,0,0,1,6.06,6.25Q1632.18,450.6,1697.26,564c24.84,43.07,50.08,85.92,75.15,128.87l78.53,134.44c3.27,5.59,6.14,11.49,10,16.69,4.91,6.69,5.94,13.86,5.93,21.94-.2,94.5-.11,189-.23,283.48a16.78,16.78,0,0,1-2.37,8.26q-50.52,83.47-101.29,166.82c-22.79,37.54-45.74,75-68.14,112.77-32.66,55.09-64.89,110.43-97.32,165.66q-19.08,32.49-38.28,64.91a14.35,14.35,0,0,1-4.9,4.71q-61.53,36.08-123.15,72c-40.05,23.35-80.21,46.52-120.11,70.12a41.73,41.73,0,0,1-22.44,6Q1143.11,1820.33,997.61,1820.52Zm261.61-820.35q0-75.49.07-151c0-3.38-.86-5.46-4-7.16q-62.44-34.41-124.78-69-63.24-35-126.54-69.85a7.56,7.56,0,0,0-6.27-.17Q948,731,898.53,759.4c-50.91,29.08-101.75,58.3-152.79,87.16-5.66,3.2-7.68,6.51-7.66,13.09.25,97.49.16,195,.27,292.48,0,1.7,1,4.2,2.36,5q45.25,26.31,90.71,52.27,81.06,46.55,162.1,93.17c2.73,1.58,4.58,1.57,7.22,0,14.38-8.34,28.87-16.49,43.32-24.7q106-60.17,212-120.45a7.22,7.22,0,0,0,3.08-5.27Q1259.35,1076.17,1259.22,1000.17Z" transform="translate(-135.71 -181.17)"/>




</svg>