<?xml version="1.0" encoding="utf-8"?>
<!-- Generator: Adobe Illustrator 24.1.3, SVG Export Plug-In . SVG Version: 6.00 Build 0)  -->
<svg version="1.1" id="Layer_1" xmlns="http://www.w3.org/2000/svg" xmlns:xlink="http://www.w3.org/1999/xlink" x="0px" y="0px"
	 viewBox="0 0 820.7 784.8" style="enable-background:new 0 0 820.7 784.8;" xml:space="preserve">
<style type="text/css">
	.st0{fill:url(#SVGID_1_);}
	.st1{fill:url(#SVGID_2_);}
	.st2{fill:url(#SVGID_3_);}
	.st3{fill:url(#SVGID_4_);}
	.st4{fill:url(#SVGID_5_);}
	.st5{fill:url(#SVGID_6_);}
	.st6{fill:url(#SVGID_7_);}
	.st7{fill:url(#SVGID_8_);}
	.st8{fill:url(#SVGID_9_);}
	.st9{fill:url(#SVGID_10_);}
	.st10{fill:url(#SVGID_11_);}
	.st11{fill:url(#SVGID_12_);}
	.st12{fill:url(#SVGID_13_);}
	.st13{display:none;fill:url(#SVGID_14_);}
	.st14{fill:url(#SVGID_15_);}
	.st15{fill:url(#SVGID_16_);}
	.st16{fill:url(#SVGID_17_);}
	.st17{fill:url(#SVGID_18_);}
	.st18{fill:url(#SVGID_19_);}
	.st19{display:none;fill:url(#SVGID_20_);}
	.st20{fill:url(#SVGID_21_);}
	.st21{fill:url(#SVGID_22_);}
	.st22{fill:url(#SVGID_23_);}
	.st23{fill:url(#SVGID_24_);}
	.st24{fill:url(#SVGID_25_);}
	.st25{fill:url(#SVGID_26_);}
	.st26{fill:url(#SVGID_27_);}
	.st27{fill:url(#SVGID_28_);}
	.st28{fill:url(#SVGID_29_);}
	.st29{fill:url(#SVGID_30_);}
	.st30{fill:url(#SVGID_31_);}
	.st31{fill:url(#SVGID_32_);}
	.st32{display:none;fill:url(#SVGID_33_);}
</style>
<g>
	
		<linearGradient id="SVGID_1_" gradientUnits="userSpaceOnUse" x1="682.5701" y1="1571.5531" x2="796.3831" y2="1508.4655" gradientTransform="matrix(1 0 0 1 0 -1214)">
		<stop  offset="0" style="stop-color:#504F4E"/>
		<stop  offset="0.5013" style="stop-color:#1D1D1B"/>
		<stop  offset="0.9968" style="stop-color:#009FE4"/>
	</linearGradient>
	<polygon class="st0" points="812.2,323 812.2,324.1 735.2,452.5 667.7,322.8 740.9,201.1 	"/>
	
		<linearGradient id="SVGID_2_" gradientUnits="userSpaceOnUse" x1="735.2" y1="1666.45" x2="812.2" y2="1666.45" gradientTransform="matrix(1 0 0 1 0 -1214)">
		<stop  offset="0" style="stop-color:#504F4E"/>
		<stop  offset="0.5013" style="stop-color:#1D1D1B"/>
		<stop  offset="0.9968" style="stop-color:#009FE4"/>
	</linearGradient>
	<polygon class="st1" points="812.2,324.1 812.2,462.6 740.3,580.8 735.2,452.5 	"/>
	
		<linearGradient id="SVGID_3_" gradientUnits="userSpaceOnUse" x1="609.1534" y1="1502.9982" x2="680.5571" y2="1379.323" gradientTransform="matrix(1 0 0 1 0 -1214)">
		<stop  offset="0" style="stop-color:#504F4E"/>
		<stop  offset="0.5013" style="stop-color:#1D1D1B"/>
		<stop  offset="0.9968" style="stop-color:#009FE4"/>
	</linearGradient>
	<polygon class="st2" points="740.7,200.8 740.9,201.1 667.7,322.8 549.4,252.2 624.2,140.6 740.1,199.7 	"/>
	
		<linearGradient id="SVGID_4_" gradientUnits="userSpaceOnUse" x1="547.1" y1="1319.8" x2="740.1" y2="1319.8" gradientTransform="matrix(1 0 0 1 0 -1214)">
		<stop  offset="0" style="stop-color:#003C5E"/>
		<stop  offset="4.727656e-02" style="stop-color:#0A4C6D"/>
		<stop  offset="0.1709" style="stop-color:#226F90"/>
		<stop  offset="0.3022" style="stop-color:#358BAD"/>
		<stop  offset="0.4416" style="stop-color:#44A2C3"/>
		<stop  offset="0.5927" style="stop-color:#4FB2D3"/>
		<stop  offset="0.7642" style="stop-color:#55BBDC"/>
		<stop  offset="1" style="stop-color:#57BEDF"/>
	</linearGradient>
	<polygon class="st3" points="740.1,199.7 624.2,140.6 547.1,11.9 672.3,81.7 	"/>
	
		<linearGradient id="SVGID_5_" gradientUnits="userSpaceOnUse" x1="714.0432" y1="1654.2852" x2="624.7485" y2="1808.9482" gradientTransform="matrix(1 0 0 1 0 -1214)">
		<stop  offset="0" style="stop-color:#00958D"/>
		<stop  offset="1" style="stop-color:#00FFC0"/>
	</linearGradient>
	<polygon class="st4" points="735.2,452.5 740.3,580.8 739.7,581.8 739.4,582.2 604.4,583.2 604.4,444.2 	"/>
	
		<linearGradient id="SVGID_6_" gradientUnits="userSpaceOnUse" x1="684.4457" y1="1764.4722" x2="578.3543" y2="1948.2279" gradientTransform="matrix(1 0 0 1 0 -1214)">
		<stop  offset="0" style="stop-color:#00958D"/>
		<stop  offset="1" style="stop-color:#00FFC0"/>
	</linearGradient>
	<polygon class="st5" points="739.4,582.2 669.1,701.9 668.2,702.5 523.4,702.5 604.4,583.2 	"/>
	
		<linearGradient id="SVGID_7_" gradientUnits="userSpaceOnUse" x1="588.124" y1="1870.2681" x2="495.076" y2="2031.4319" gradientTransform="matrix(1 0 0 1 0 -1214)">
		<stop  offset="0" style="stop-color:#00958D"/>
		<stop  offset="1" style="stop-color:#00FFC0"/>
	</linearGradient>
	<polygon class="st6" points="668.2,702.5 550.3,771.2 415,771.2 523.5,702.5 	"/>
	
		<linearGradient id="SVGID_8_" gradientUnits="userSpaceOnUse" x1="668.8466" y1="1537.462" x2="600.4537" y2="1655.9216" gradientTransform="matrix(1 0 0 1 0 -1214)">
		<stop  offset="0" style="stop-color:#00958D"/>
		<stop  offset="1" style="stop-color:#00FFC0"/>
	</linearGradient>
	<polygon class="st7" points="667.7,322.8 735.2,452.5 604.4,444.2 530.8,318.6 	"/>
	
		<linearGradient id="SVGID_9_" gradientUnits="userSpaceOnUse" x1="410.9" y1="1501.5" x2="667.7" y2="1501.5" gradientTransform="matrix(1 0 0 1 0 -1214)">
		<stop  offset="0" style="stop-color:#00958D"/>
		<stop  offset="1" style="stop-color:#00FFC0"/>
	</linearGradient>
	<polygon class="st8" points="667.7,322.8 530.8,318.6 410.9,252.2 549.5,252.2 	"/>
	
		<linearGradient id="SVGID_10_" gradientUnits="userSpaceOnUse" x1="411.4" y1="1289.95" x2="624.2" y2="1289.95" gradientTransform="matrix(1 0 0 1 0 -1214)">
		<stop  offset="0" style="stop-color:#003C5E"/>
		<stop  offset="5.499166e-02" style="stop-color:#0C4F71"/>
		<stop  offset="0.1729" style="stop-color:#237192"/>
		<stop  offset="0.2991" style="stop-color:#368DAE"/>
		<stop  offset="0.4341" style="stop-color:#45A3C4"/>
		<stop  offset="0.5821" style="stop-color:#4FB2D3"/>
		<stop  offset="0.7531" style="stop-color:#55BBDC"/>
		<stop  offset="1" style="stop-color:#57BEDF"/>
	</linearGradient>
	<polygon class="st9" points="547.1,11.9 624.2,140.6 479.9,131.9 411.4,11.3 546.1,11.3 	"/>
	
		<linearGradient id="SVGID_11_" gradientUnits="userSpaceOnUse" x1="517.55" y1="1466.2" x2="517.55" y2="1345.9" gradientTransform="matrix(1 0 0 1 0 -1214)">
		<stop  offset="0" style="stop-color:#504F4E"/>
		<stop  offset="0.5013" style="stop-color:#1D1D1B"/>
		<stop  offset="0.9968" style="stop-color:#009FE4"/>
	</linearGradient>
	<polygon class="st10" points="624.2,140.6 549.4,252.2 410.9,252.2 479.9,131.9 	"/>
	
		<linearGradient id="SVGID_12_" gradientUnits="userSpaceOnUse" x1="457.5" y1="1797.05" x2="604.4" y2="1797.05" gradientTransform="matrix(1 0 0 1 0 -1214)">
		<stop  offset="0" style="stop-color:#00958D"/>
		<stop  offset="0.1885" style="stop-color:#049A8E"/>
		<stop  offset="0.4142" style="stop-color:#10A992"/>
		<stop  offset="0.6588" style="stop-color:#24C197"/>
		<stop  offset="1" style="stop-color:#00FFC0"/>
	</linearGradient>
	<polygon class="st11" points="531.2,463.6 604.4,583.2 523.5,702.5 457.5,583.9 457.5,583.9 457.7,583.8 	"/>
	
		<linearGradient id="SVGID_13_" gradientUnits="userSpaceOnUse" x1="530.8" y1="1664.9" x2="604.4" y2="1664.9" gradientTransform="matrix(1 0 0 1 0 -1214)">
		<stop  offset="0" style="stop-color:#00958D"/>
		<stop  offset="0.1885" style="stop-color:#049A8E"/>
		<stop  offset="0.4142" style="stop-color:#10A992"/>
		<stop  offset="0.6588" style="stop-color:#24C197"/>
		<stop  offset="1" style="stop-color:#00FFC0"/>
	</linearGradient>
	<polygon class="st12" points="604.4,444.2 604.4,583.2 531.3,463.7 531.2,463.6 531.1,463.2 530.8,462 530.8,318.6 	"/>
	
		<linearGradient id="SVGID_14_" gradientUnits="userSpaceOnUse" x1="410.9" y1="1571.2" x2="530.8" y2="1571.2" gradientTransform="matrix(1 0 0 1 0 -1214)">
		<stop  offset="0" style="stop-color:#504F4E"/>
		<stop  offset="0.5013" style="stop-color:#1D1D1B"/>
		<stop  offset="0.9968" style="stop-color:#FF2859"/>
	</linearGradient>
	<polygon class="st13" points="530.8,318.6 530.8,462 530.4,462.2 410.9,252.2 	"/>
	
		<linearGradient id="SVGID_15_" gradientUnits="userSpaceOnUse" x1="342.4" y1="1891.55" x2="523.5" y2="1891.55" gradientTransform="matrix(1 0 0 1 0 -1214)">
		<stop  offset="0" style="stop-color:#00958D"/>
		<stop  offset="0.1885" style="stop-color:#049A8E"/>
		<stop  offset="0.4142" style="stop-color:#10A992"/>
		<stop  offset="0.6588" style="stop-color:#24C197"/>
		<stop  offset="1" style="stop-color:#00FFC0"/>
	</linearGradient>
	<polygon class="st14" points="457.5,583.9 523.5,702.5 415,771.2 413.4,771.2 342.4,654.5 344.1,652.8 	"/>
	
		<linearGradient id="SVGID_16_" gradientUnits="userSpaceOnUse" x1="402.0394" y1="1471.3157" x2="367.1307" y2="1410.8522" gradientTransform="matrix(1 0 0 1 0 -1214)">
		<stop  offset="0" style="stop-color:#504F4E"/>
		<stop  offset="0.5013" style="stop-color:#1D1D1B"/>
		<stop  offset="0.9968" style="stop-color:#009FE4"/>
	</linearGradient>
	<polygon class="st15" points="479.9,131.9 410.9,252.2 289,321.8 359.6,201.2 	"/>
	
		<linearGradient id="SVGID_17_" gradientUnits="userSpaceOnUse" x1="197.2" y1="1923.25" x2="413.4" y2="1923.25" gradientTransform="matrix(1 0 0 1 0 -1214)">
		<stop  offset="0" style="stop-color:#00958D"/>
		<stop  offset="0.1885" style="stop-color:#049A8E"/>
		<stop  offset="0.4142" style="stop-color:#10A992"/>
		<stop  offset="0.6588" style="stop-color:#24C197"/>
		<stop  offset="1" style="stop-color:#00FFC0"/>
	</linearGradient>
	<polygon class="st16" points="413.4,771.2 268.5,771.2 267.5,770.7 197.2,647.3 341.9,654.5 342.2,654.5 342.4,654.5 342.4,654.5 	
		"/>
	
		<linearGradient id="SVGID_18_" gradientUnits="userSpaceOnUse" x1="293.2" y1="1320.25" x2="479.9" y2="1320.25" gradientTransform="matrix(1 0 0 1 0 -1214)">
		<stop  offset="0" style="stop-color:#003C5E"/>
		<stop  offset="3.221858e-02" style="stop-color:#074668"/>
		<stop  offset="0.1654" style="stop-color:#1F6B8C"/>
		<stop  offset="0.3054" style="stop-color:#3489AA"/>
		<stop  offset="0.452" style="stop-color:#43A0C2"/>
		<stop  offset="0.6081" style="stop-color:#4EB1D2"/>
		<stop  offset="0.7803" style="stop-color:#55BBDC"/>
		<stop  offset="1" style="stop-color:#57BEDF"/>
	</linearGradient>
	<polygon class="st17" points="411.4,11.3 479.9,131.9 359.6,201.2 293.2,80 409.6,11.3 	"/>
	
		<linearGradient id="SVGID_19_" gradientUnits="userSpaceOnUse" x1="455.5168" y1="1803.7693" x2="419.0959" y2="1740.6866" gradientTransform="matrix(1 0 0 1 0 -1214)">
		<stop  offset="3.175741e-03" style="stop-color:#007B67"/>
		<stop  offset="0.4987" style="stop-color:#1D1D1B"/>
		<stop  offset="1" style="stop-color:#504F4E"/>
	</linearGradient>
	<polygon class="st18" points="531.9,462.7 531.3,463.7 458.1,585 458,585.3 343.9,654.2 343.4,654.5 343.2,654.6 343.3,654.5 
		344.3,652.6 409,532.6 409.1,532.5 409.2,532.4 409.4,532.3 531.1,463.2 	"/>
	
		<linearGradient id="SVGID_20_" gradientUnits="userSpaceOnUse" x1="289" y1="1572.05" x2="410.9" y2="1572.05" gradientTransform="matrix(1 0 0 1 0 -1214)">
		<stop  offset="3.175741e-03" style="stop-color:#FF2859"/>
		<stop  offset="0.4987" style="stop-color:#1D1D1B"/>
		<stop  offset="1" style="stop-color:#504F4E"/>
	</linearGradient>
	<polygon class="st19" points="410.9,252.2 289,463.9 289,321.8 	"/>
	
		<linearGradient id="SVGID_21_" gradientUnits="userSpaceOnUse" x1="327.3999" y1="1307.5" x2="232.8001" y2="1212.9" gradientTransform="matrix(1 0 0 1 0 -1214)">
		<stop  offset="0" style="stop-color:#000000"/>
		<stop  offset="8.530000e-02" style="stop-color:#151414"/>
		<stop  offset="0.1887" style="stop-color:#262524"/>
		<stop  offset="0.3176" style="stop-color:#313030"/>
		<stop  offset="0.4983" style="stop-color:#383736"/>
		<stop  offset="1" style="stop-color:#3A3938"/>
	</linearGradient>
	<polygon class="st20" points="409.6,11.3 293.2,80 150.6,81.1 271.6,11.3 	"/>
	
		<linearGradient id="SVGID_22_" gradientUnits="userSpaceOnUse" x1="266.75" y1="1700.15" x2="100.2" y2="1533.6" gradientTransform="matrix(1 0 0 1 0 -1214)">
		<stop  offset="0" style="stop-color:#000000"/>
		<stop  offset="8.530000e-02" style="stop-color:#151414"/>
		<stop  offset="0.1887" style="stop-color:#262524"/>
		<stop  offset="0.3176" style="stop-color:#313030"/>
		<stop  offset="0.4983" style="stop-color:#383736"/>
		<stop  offset="1" style="stop-color:#3A3938"/>
	</linearGradient>
	<polygon class="st21" points="218.5,343.5 289,463.9 150.5,463.9 150.5,463.9 149.6,463.4 149.6,463.3 84.5,335.3 	"/>
	
		<linearGradient id="SVGID_23_" gradientUnits="userSpaceOnUse" x1="218.5" y1="1546.65" x2="289" y2="1546.65" gradientTransform="matrix(1 0 0 1 0 -1214)">
		<stop  offset="0" style="stop-color:#003C5E"/>
		<stop  offset="1.764768e-02" style="stop-color:#044163"/>
		<stop  offset="0.1591" style="stop-color:#1D6789"/>
		<stop  offset="0.3064" style="stop-color:#3287A8"/>
		<stop  offset="0.4591" style="stop-color:#429FC0"/>
		<stop  offset="0.6193" style="stop-color:#4EB0D2"/>
		<stop  offset="0.7921" style="stop-color:#55BBDC"/>
		<stop  offset="1" style="stop-color:#57BEDF"/>
	</linearGradient>
	<polygon class="st22" points="289,321.8 289,463.9 218.5,343.5 218.5,201.4 	"/>
	
		<linearGradient id="SVGID_24_" gradientUnits="userSpaceOnUse" x1="218.5" y1="1414.9" x2="359.6" y2="1414.9" gradientTransform="matrix(1 0 0 1 0 -1214)">
		<stop  offset="0" style="stop-color:#003C5E"/>
		<stop  offset="1.299167e-02" style="stop-color:#034062"/>
		<stop  offset="0.1569" style="stop-color:#1C6688"/>
		<stop  offset="0.3063" style="stop-color:#3286A8"/>
		<stop  offset="0.4608" style="stop-color:#429FC0"/>
		<stop  offset="0.6223" style="stop-color:#4EB0D1"/>
		<stop  offset="0.7953" style="stop-color:#55BBDC"/>
		<stop  offset="1" style="stop-color:#57BEDF"/>
	</linearGradient>
	<polygon class="st23" points="293.2,80 359.6,201.2 289,321.8 218.5,201.4 	"/>
	
		<linearGradient id="SVGID_25_" gradientUnits="userSpaceOnUse" x1="233.1" y1="1400.8" x2="138.8" y2="1306.5" gradientTransform="matrix(1 0 0 1 0 -1214)">
		<stop  offset="0" style="stop-color:#000000"/>
		<stop  offset="8.530000e-02" style="stop-color:#151414"/>
		<stop  offset="0.1887" style="stop-color:#262524"/>
		<stop  offset="0.3176" style="stop-color:#313030"/>
		<stop  offset="0.4983" style="stop-color:#383736"/>
		<stop  offset="1" style="stop-color:#3A3938"/>
	</linearGradient>
	<polygon class="st24" points="293.2,80 218.5,201.4 80.4,201 149.6,81.7 150.6,81.1 	"/>
	
		<linearGradient id="SVGID_26_" gradientUnits="userSpaceOnUse" x1="306.539" y1="1869.7977" x2="302.2244" y2="1746.2445" gradientTransform="matrix(1 0 0 1 0 -1214)">
		<stop  offset="3.175741e-03" style="stop-color:#007B67"/>
		<stop  offset="0.4987" style="stop-color:#1D1D1B"/>
		<stop  offset="1" style="stop-color:#504F4E"/>
	</linearGradient>
	<polygon class="st25" points="410.7,532.3 345,652.2 343.9,654.2 343.7,654.5 343.4,654.5 343.3,654.5 342.4,654.5 340,654.4 
		273.5,652.5 197.8,648.2 197.8,648.2 198.3,647.4 271.8,533.7 272,533.4 272,533.3 409,532.3 409.4,532.3 	"/>
	
		<linearGradient id="SVGID_27_" gradientUnits="userSpaceOnUse" x1="362.25" y1="1793.95" x2="198.85" y2="1630.5499" gradientTransform="matrix(1 0 0 1 0 -1214)">
		<stop  offset="0" style="stop-color:#000000"/>
		<stop  offset="8.530000e-02" style="stop-color:#151414"/>
		<stop  offset="0.1887" style="stop-color:#262524"/>
		<stop  offset="0.3176" style="stop-color:#313030"/>
		<stop  offset="0.4983" style="stop-color:#383736"/>
		<stop  offset="1" style="stop-color:#3A3938"/>
	</linearGradient>
	<polygon class="st26" points="409.6,532.6 409,532.6 271.8,533.7 271.8,533.7 271.1,533.7 212.1,499.3 151.5,463.9 290,463.9 
		409,532.3 409.2,532.4 	"/>
	
		<linearGradient id="SVGID_28_" gradientUnits="userSpaceOnUse" x1="222.225" y1="1553.775" x2="81.925" y2="1413.475" gradientTransform="matrix(1 0 0 1 0 -1214)">
		<stop  offset="0" style="stop-color:#000000"/>
		<stop  offset="8.530000e-02" style="stop-color:#151414"/>
		<stop  offset="0.1887" style="stop-color:#262524"/>
		<stop  offset="0.3176" style="stop-color:#313030"/>
		<stop  offset="0.4983" style="stop-color:#383736"/>
		<stop  offset="1" style="stop-color:#3A3938"/>
	</linearGradient>
	<polygon class="st27" points="218.5,201.4 218.5,343.5 84.5,335.3 82.8,335 80.3,201.2 80.4,201 	"/>
	
		<linearGradient id="SVGID_29_" gradientUnits="userSpaceOnUse" x1="82" y1="1892.45" x2="267.5" y2="1892.45" gradientTransform="matrix(1 0 0 1 0 -1214)">
		<stop  offset="0" style="stop-color:#00958D"/>
		<stop  offset="0.1885" style="stop-color:#049A8E"/>
		<stop  offset="0.4142" style="stop-color:#10A992"/>
		<stop  offset="0.6588" style="stop-color:#24C197"/>
		<stop  offset="1" style="stop-color:#00FFC0"/>
	</linearGradient>
	<polygon class="st28" points="197.2,647.3 267.5,770.7 149.5,705.1 82,586.2 195.6,646.8 195.3,647.2 196.5,647.3 197,647.5 
		197.1,647.3 	"/>
	
		<linearGradient id="SVGID_30_" gradientUnits="userSpaceOnUse" x1="128.3918" y1="1833.7638" x2="216.2152" y2="1708.3391" gradientTransform="matrix(1 0 0 1 0 -1214)">
		<stop  offset="3.175741e-03" style="stop-color:#007B67"/>
		<stop  offset="0.4987" style="stop-color:#1D1D1B"/>
		<stop  offset="1" style="stop-color:#504F4E"/>
	</linearGradient>
	<polygon class="st29" points="272,533.4 197.7,648.4 82.6,587.7 150.2,461 	"/>
	
		<linearGradient id="SVGID_31_" gradientUnits="userSpaceOnUse" x1="26.9357" y1="1704.7208" x2="139.7643" y2="1639.5791" gradientTransform="matrix(1 0 0 1 0 -1214)">
		<stop  offset="3.175741e-03" style="stop-color:#007B67"/>
		<stop  offset="0.4987" style="stop-color:#1D1D1B"/>
		<stop  offset="1" style="stop-color:#504F4E"/>
	</linearGradient>
	<polygon class="st30" points="83.6,328.3 150.6,461.4 83.1,588 9.7,458.6 9.7,457.5 	"/>
	
		<linearGradient id="SVGID_32_" gradientUnits="userSpaceOnUse" x1="9.7" y1="1542.7" x2="83.6" y2="1542.7" gradientTransform="matrix(1 0 0 1 0 -1214)">
		<stop  offset="3.175741e-03" style="stop-color:#007B67"/>
		<stop  offset="0.4987" style="stop-color:#1D1D1B"/>
		<stop  offset="1" style="stop-color:#504F4E"/>
	</linearGradient>
	<polygon class="st31" points="83.3,327.6 83.6,328.3 9.7,457.5 9.7,314.8 80.8,199.9 83.3,327.5 	"/>
	
		<linearGradient id="SVGID_33_" gradientUnits="userSpaceOnUse" x1="289" y1="1606.4" x2="531.9" y2="1606.4" gradientTransform="matrix(1 0 0 1 0 -1214)">
		<stop  offset="3.175741e-03" style="stop-color:#845DFF"/>
		<stop  offset="0.4987" style="stop-color:#1D1D1B"/>
		<stop  offset="1" style="stop-color:#504F4E"/>
	</linearGradient>
	<polygon class="st32" points="410.9,252.2 531.9,463.7 410.7,532.6 409.6,532.6 289,463.9 	"/>
	<polygon points="342.5,654.3 342.4,654.5 342.4,654.4 	"/>
	<polygon points="197.2,647.3 197.1,647.3 197.1,647.3 197.1,647.3 	"/>
	<path d="M197.1,647.3L197.1,647.3L197.1,647.3z"/>
	<polygon points="80.4,201 80.3,201.2 80.3,201 	"/>
</g>
</svg>
