<svg id="Layer_1" data-name="Layer 1" xmlns="http://www.w3.org/2000/svg" viewBox="0 0 2000 2000"><defs><style>.cls-1{fill:#fff;}</style></defs><path class="cls-1" d="M2000,2000H0V0H2000ZM1959.6,863.37c.63-5.16.64-5.19-4-6.39-45.42-11.74-91.72-18.34-138.31-22.8q-50.94-4.89-102.12-7.35c-52.82-2.64-105.63-.87-158.3,3.54q-45.27,3.79-90.36,9.67c-37.12,4.89-74.32,9.64-111.07,16.69-45.58,8.74-90.87,19.14-136,29.93C1118.06,910.89,1017,936.2,915.58,960.27c-49,11.62-98.55,20-148.94,22.5a762.89,762.89,0,0,1-139.59-6.09,897,897,0,0,1-163.83-37.57c-128.6-42.87-257-86.43-385.43-129.7C65.37,805.23,52.94,801.09,40.6,797c-1.86,4.71.42,6.09,4.17,7.36C170.08,846.51,295.47,888.5,420.6,931.2c89.29,30.47,180.09,53,274.81,57.15,44.06,1.95,88.05,1,131.56-6,39.9-6.45,79.76-13.76,119.08-23.07,95.08-22.52,189.76-46.71,284.75-69.64,40.28-9.72,80.74-18.86,121.43-26.6,36-6.83,72.27-11.77,108.54-16.73,27.37-3.74,54.87-6.62,82.39-9.09,24-2.16,48.16-4,72.28-4.59,34.8-.8,69.67-1.32,104.44-.06,33.08,1.2,66.16,4,99.08,7.63,31.91,3.47,63.67,8.45,95.38,13.47C1929.56,856.07,1944.52,860.08,1959.6,863.37Z" transform="translate(0 0)"/><path d="M1959.6,863.37c-15.08-3.29-30-7.3-45.26-9.71-31.71-5-63.47-10-95.38-13.47-32.92-3.59-66-6.43-99.08-7.63-34.77-1.26-69.64-.74-104.44.06-24.12.56-48.24,2.43-72.28,4.59-27.52,2.47-55,5.35-82.39,9.09-36.27,5-72.59,9.9-108.54,16.73-40.69,7.74-81.15,16.88-121.43,26.6-95,22.93-189.67,47.12-284.75,69.64-39.32,9.31-79.18,16.62-119.08,23.07-43.51,7-87.5,8-131.56,6-94.72-4.19-185.52-26.68-274.81-57.15C295.47,888.5,170.08,846.51,44.77,804.32c-3.75-1.27-6-2.65-4.17-7.36,12.34,4.13,24.77,8.27,37.19,12.45,128.46,43.27,256.83,86.83,385.43,129.7a897,897,0,0,0,163.83,37.57,762.89,762.89,0,0,0,139.59,6.09c50.39-2.46,100-10.88,148.94-22.5,101.39-24.07,202.48-49.38,303.82-73.61,45.16-10.79,90.45-21.19,136-29.93,36.75-7.05,74-11.8,111.07-16.69q45-5.92,90.36-9.67c52.67-4.41,105.48-6.18,158.3-3.54q51.12,2.53,102.12,7.35c46.59,4.46,92.89,11.06,138.31,22.8C1960.24,858.18,1960.23,858.21,1959.6,863.37Z" transform="translate(0 0)"/></svg>